<?xml version="1.0" encoding="UTF-8"?>
<svg version="1.1" xmlns="http://www.w3.org/2000/svg" width="3509" height="3508">
<path d="M0 0 C1157.97 0 2315.94 0 3509 0 C3509 1157.64 3509 2315.28 3509 3508 C2351.03 3508 1193.06 3508 0 3508 C0 2350.36 0 1192.72 0 0 Z " fill="#F7FBFD" transform="translate(0,0)"/>
<path d="M0 0 C19.60059621 17.10310088 30.08826493 42.38118625 32 68 C32.22889911 73.75100096 32.30092769 79.49488586 32.3125 85.25 C32.31608521 85.9666684 32.31967041 86.68333679 32.32336426 87.42172241 C32.36012332 101.09237802 31.20581719 114.38213385 27.3125 127.5625 C26.92167236 128.89837158 26.92167236 128.89837158 26.52294922 130.26123047 C22.7812398 142.54211076 16.93777591 152.90355698 9 163 C7.8553125 164.546875 7.8553125 164.546875 6.6875 166.125 C-11.93616814 186.04799383 -37.91129453 195.91197196 -64.75610352 197.17700195 C-69.02515587 197.2445511 -73.29293602 197.29875502 -77.5625 197.3125 C-78.33812286 197.31511841 -79.11374573 197.31773682 -79.91287231 197.32043457 C-109.04332818 197.33094353 -135.39497574 191.10811443 -158 172 C-158.66515625 171.43796875 -159.3303125 170.8759375 -160.015625 170.296875 C-178.88102862 152.84196885 -188.69633618 125.9918593 -190.12109375 100.86434937 C-190.29450217 96.38326654 -190.32856179 91.90544337 -190.31567383 87.42138672 C-190.31251148 85.13330416 -190.33610267 82.84651836 -190.36132812 80.55859375 C-190.48741008 51.22097295 -180.94586288 24.11527233 -160.3125 2.8125 C-120.51831079 -36.61269433 -41.7348406 -35.45020817 0 0 Z " fill="#016F9A" transform="translate(1735,1887)"/>
<path d="M0 0 C28.6790625 -0.0928125 28.6790625 -0.0928125 57.9375 -0.1875 C63.94316162 -0.21481201 69.94882324 -0.24212402 76.13647461 -0.27026367 C83.54992676 -0.28381348 83.54992676 -0.28381348 87.03590393 -0.28633118 C89.43684057 -0.2908956 91.83777094 -0.30135742 94.23866272 -0.31672668 C122.62970522 -0.48916369 148.76342238 2.62631003 170.33203125 23.13671875 C194.9281568 49.53343915 199.2686879 84.47097223 198.25419617 119.07093811 C197.28291967 146.14554585 189.63606109 171.57296795 170 191 C146.17629208 212.85817785 115.01948578 215.50579559 84.1796875 215.29296875 C82.01375562 215.28854516 79.84782051 215.2854925 77.68188477 215.28381348 C69.74620687 215.26823241 61.8105981 215.22634943 53.875 215.1875 C36.09625 215.125625 18.3175 215.06375 0 215 C0 144.05 0 73.1 0 0 Z " fill="#016F9A" transform="translate(941,1866)"/>
<path d="M0 0 C59.07 0 118.14 0 179 0 C179 15.18 179 30.36 179 46 C142.04 46 105.08 46 67 46 C67 57.22 67 68.44 67 80 C101.32 80 135.64 80 171 80 C171 94.52 171 109.04 171 124 C136.68 124 102.36 124 67 124 C67 137.86 67 151.72 67 166 C104.95 166 142.9 166 182 166 C182 182.17 182 198.34 182 215 C121.94 215 61.88 215 0 215 C0 144.05 0 73.1 0 0 Z " fill="#02709A" transform="translate(1155,1866)"/>
<path d="M0 0 C20.398125 -0.04125 40.79625 -0.0825 61.8125 -0.125 C71.45110229 -0.15231201 71.45110229 -0.15231201 81.28442383 -0.18017578 C89.16931152 -0.18920898 89.16931152 -0.18920898 92.8679657 -0.19088745 C96.10646169 -0.19474589 99.34484711 -0.20599622 102.58331376 -0.21963322 C105.81440974 -0.23039627 109.04550059 -0.22767877 112.27661133 -0.22705078 C113.40807744 -0.234247 114.53954355 -0.24144321 115.70529652 -0.2488575 C133.86483553 -0.20186912 152.12911598 4.51449384 165.75 17.0625 C180.48342554 32.86550271 182.90705291 51.42856308 182.37890625 72.28125 C181.59051979 90.05578099 175.22066375 105.72984149 162 118 C158.80013032 120.5837457 155.5090099 122.85783847 152 125 C151.36707031 125.38800781 150.73414063 125.77601562 150.08203125 126.17578125 C143.87994376 129.60081464 136.88731864 131.48196601 130 133 C129.19264404 133.18385254 128.38528809 133.36770508 127.5534668 133.55712891 C115.57227876 135.84089459 103.32791532 135.21370498 91.1875 135.125 C83.205625 135.08375 75.22375 135.0425 67 135 C67 161.4 67 187.8 67 215 C44.89 215 22.78 215 0 215 C0 144.05 0 73.1 0 0 Z " fill="#006F9A" transform="translate(1354,1866)"/>
<path d="M0 0 C100.34617876 0 100.34617876 0 119.34765625 17.2578125 C130.38047681 28.89052638 134.17431815 42.15953902 134.25 57.75 C134.2809375 59.32007813 134.2809375 59.32007813 134.3125 60.921875 C134.34559112 67.54009931 133.58138778 72.90187257 131 79 C130.56300781 80.051875 130.12601563 81.10375 129.67578125 82.1875 C122.95859555 96.04530432 113.16758428 104.79615534 98.6640625 110.16015625 C86.04953015 114.13687832 73.79705631 115.16042877 60.6484375 115.09765625 C59.63628174 115.09664917 58.62412598 115.09564209 57.58129883 115.09460449 C53.84585415 115.08942221 50.11042578 115.07546147 46.375 115.0625 C38.00125 115.041875 29.6275 115.02125 21 115 C21 148.33 21 181.66 21 216 C14.07 216 7.14 216 0 216 C0 144.72 0 73.44 0 0 Z " fill="#28B6E6" transform="translate(2738,1865)"/>
<path d="M0 0 C0.69577148 0.00304138 1.39154297 0.00608276 2.10839844 0.00921631 C33.93029602 0.21401971 61.42275771 11.17614022 84.5 33.125 C105.1156132 54.57728581 115.75176632 81.12633402 115.74560547 110.76928711 C115.74996102 113.1041057 115.78634763 115.4370003 115.82421875 117.77148438 C115.90258483 128.2272848 114.42741555 137.44848789 111.375 147.4375 C111.12347168 148.27015381 110.87194336 149.10280762 110.61279297 149.96069336 C101.8865728 177.04039584 81.9817814 200.43356769 56.93359375 213.87890625 C28.33394708 228.49689991 -4.70195535 230.68084189 -35.3125 221.1875 C-63.8250542 211.03027932 -87.89520161 190.31231268 -101 162.875 C-114.20294508 133.88080333 -115.20812176 101.90098303 -104.34765625 71.91015625 C-98.41536153 57.30126428 -90.19233945 45.04371768 -79.625 33.4375 C-79.04363281 32.77363281 -78.46226562 32.10976562 -77.86328125 31.42578125 C-58.40813069 10.40245735 -27.96278215 -0.2608093 0 0 Z M-61.625 47.4375 C-62.31335937 48.05109375 -63.00171875 48.6646875 -63.7109375 49.296875 C-79.1057919 63.53559409 -87.76817039 85.42750499 -88.7512207 106.09057617 C-89.52622283 133.95374804 -82.64759379 157.6120904 -63.20727539 178.24047852 C-46.56034959 195.41619192 -24.95159566 205.17935042 -1.0222168 205.90991211 C24.70855563 206.14975186 49.17118577 196.75632025 67.88623047 178.93359375 C85.00828762 161.72730214 93.77070081 137.58183723 93.8125 113.5625 C93.73381962 88.35105667 85.54934616 66.02771748 67.80371094 47.84912109 C57.24569028 37.41739255 44.11209493 30.71942324 30.375 25.4375 C29.53710938 25.086875 28.69921875 24.73625 27.8359375 24.375 C-3.17254647 12.5622442 -38.9348393 25.73386802 -61.625 47.4375 Z " fill="#29B6E6" transform="translate(2578.625,1859.5625)"/>
<path d="M0 0 C2.31 0 4.62 0 7 0 C7.38220703 0.85529297 7.76441406 1.71058594 8.15820312 2.59179688 C16.2862784 21.01185974 16.2862784 21.01185974 25.0625 39.125 C29.42258061 47.62012481 33.23973951 56.3600958 37.08227539 65.09814453 C40.20915525 72.16672637 43.51397461 79.09427097 47.00283813 85.98910522 C50.17884123 92.29234635 53.1021028 98.69495801 55.98443604 105.1366272 C61.86817113 118.27331283 67.94217959 131.31422433 74.125 144.3125 C75.64861178 147.51684426 77.17210914 150.72124283 78.6953125 153.92578125 C79.06312836 154.69954102 79.43094421 155.47330078 79.80990601 156.27050781 C87.26524441 171.96814741 94.53928774 187.75118457 101.75 203.5625 C102.16894531 204.47966797 102.58789062 205.39683594 103.01953125 206.34179688 C103.58994141 207.59766602 103.58994141 207.59766602 104.171875 208.87890625 C104.5028418 209.6066626 104.83380859 210.33441895 105.17480469 211.08422852 C106 213 106 213 107 216 C99.08 216 91.16 216 83 216 C74.57089159 198.73060717 66.19264164 181.44694941 58.16333008 163.98730469 C56.05415262 159.40366745 53.94193572 154.8384364 51.640625 150.34765625 C50 147 50 147 50 145 C18.98 145 -12.04 145 -44 145 C-44.99 147.97 -45.98 150.94 -47 154 C-48.0636619 156.39315829 -49.17566658 158.76544083 -50.3359375 161.11328125 C-50.80997765 162.08022163 -50.80997765 162.08022163 -51.29359436 163.06669617 C-51.96794516 164.44137188 -52.64469699 165.81487206 -53.32369995 167.18725586 C-55.12238315 170.82336425 -56.90309738 174.46824092 -58.68359375 178.11328125 C-59.04459671 178.85160187 -59.40559967 179.58992249 -59.77754211 180.35061646 C-64.01846138 189.04872233 -68.06978853 197.83335753 -72.10107422 206.63012695 C-72.60268066 207.72156006 -73.10428711 208.81299316 -73.62109375 209.9375 C-74.0586499 210.89527344 -74.49620605 211.85304688 -74.94702148 212.83984375 C-76 215 -76 215 -77 216 C-78.78071246 216.08726223 -80.5648314 216.10699041 -82.34765625 216.09765625 C-83.42724609 216.09443359 -84.50683594 216.09121094 -85.61914062 216.08789062 C-86.75544922 216.07951172 -87.89175781 216.07113281 -89.0625 216.0625 C-90.20267578 216.05798828 -91.34285156 216.05347656 -92.51757812 216.04882812 C-95.34510351 216.03699747 -98.1725264 216.0205141 -101 216 C-99.5353588 211.25678402 -97.60955356 206.83286308 -95.46484375 202.3671875 C-95.1145813 201.63056885 -94.76431885 200.8939502 -94.40344238 200.13500977 C-93.25124234 197.71350952 -92.09431711 195.29429746 -90.9375 192.875 C-90.12403534 191.1670175 -89.31097192 189.45884385 -88.49829102 187.75048828 C-86.82165536 184.22632447 -85.14365607 180.70281487 -83.46484375 177.1796875 C-80.1202444 170.15628997 -76.79926618 163.12178096 -73.4805603 156.08612061 C-72.42863211 153.8562015 -71.3761467 151.62654622 -70.32348633 149.39697266 C-67.17070435 142.71915132 -64.01911451 136.04076817 -60.86846924 129.36193848 C-59.47116748 126.40007363 -58.07357137 123.43834777 -56.67584229 120.47668457 C-55.97683364 118.99551866 -55.27789938 117.51431764 -54.57904053 116.03308105 C-50.42069866 107.22054379 -46.24905006 98.41450321 -42.05859375 89.6171875 C-40.3930717 86.11986663 -38.72769565 82.62247629 -37.0625 79.125 C-36.65674744 78.27290955 -36.25099487 77.42081909 -35.83294678 76.54290771 C-30.81262342 65.9944913 -25.86426199 55.42275669 -21.078125 44.765625 C-18.5153156 39.07454648 -15.77258145 33.4986213 -12.9375 27.9375 C-8.34980022 18.76210045 -4.23750347 9.34069632 0 0 Z " fill="#29B6E6" transform="translate(2115,1865)"/>
<path d="M0 0 C5 0 5 0 6.703125 1.14453125 C7.21359375 1.69496094 7.7240625 2.24539063 8.25 2.8125 C9.1471875 3.77542969 9.1471875 3.77542969 10.0625 4.7578125 C12.97013756 8.12269952 15.7597406 11.57801085 18.546875 15.04296875 C21.10493088 18.12648516 23.77027804 21.06967478 26.5 24 C30.76943449 28.58735541 34.75760293 33.33444935 38.6875 38.21875 C41.19971133 41.24019336 43.82402457 44.12440078 46.5 47 C50.7895776 51.61001639 54.80410897 56.37783236 58.75390625 61.28515625 C61.0883059 64.10673495 63.51990598 66.80590712 66 69.5 C69.27418423 73.05670244 72.40642433 76.67161811 75.4375 80.4375 C79.09571015 84.97316443 82.94742965 89.2570117 86.91381836 93.51928711 C90.69490558 97.60661006 94.19689966 101.88043244 97.6875 106.21875 C100.1997101 109.24019188 102.82400827 112.12441773 105.5 115 C109.76918152 119.58760113 113.75758517 124.33442728 117.6875 129.21875 C120.19971502 132.2401978 122.82407352 135.12434991 125.5 138 C129.77526586 142.59613363 133.81478646 147.32717359 137.734375 152.234375 C140.73477468 155.89693185 143.88222435 159.43682783 147 163 C147.33 109.21 147.66 55.42 148 0 C155.26 0 162.52 0 170 0 C170 71.28 170 142.56 170 216 C164 216 164 216 161.83203125 214.015625 C161.16558594 213.10296875 160.49914063 212.1903125 159.8125 211.25 C158.66201172 209.74179688 158.66201172 209.74179688 157.48828125 208.203125 C156.8842749 207.40938477 156.8842749 207.40938477 156.26806641 206.59960938 C154.15512603 203.93422906 151.82778407 201.47721905 149.5 199 C146.04647829 195.29324387 142.73466161 191.51479539 139.5625 187.5625 C136.19653735 183.37762693 132.66823983 179.41685602 129 175.5 C124.54127805 170.73908666 120.36202376 165.83532437 116.27734375 160.74609375 C113.78173531 157.73680948 111.16234857 154.86061346 108.5 152 C104.23079221 147.41242561 100.24241261 142.66556996 96.3125 137.78125 C93.35823636 134.22814914 90.23086576 130.8597632 87.08374023 127.47827148 C84.11284372 124.2670095 81.30038923 120.97372185 78.5625 117.5625 C75.19653735 113.37762693 71.66823983 109.41685602 68 105.5 C63.54127805 100.73908666 59.36202376 95.83532437 55.27734375 90.74609375 C52.78173453 87.73680853 50.16233195 84.86062978 47.5 82 C44.00651265 78.24558828 40.6594267 74.43223452 37.4375 70.4375 C32.82665222 64.78758793 27.90550635 59.39605699 23 54 C22.67 107.46 22.34 160.92 22 216 C14.74 216 7.48 216 0 216 C0 144.72 0 73.44 0 0 Z " fill="#29B6E6" transform="translate(2255,1865)"/>
<path d="M0 0 C0.77867432 -0.01248276 1.55734863 -0.02496552 2.35961914 -0.03782654 C19.09802864 -0.25431812 34.83668951 -0.27077768 50.83984375 5.2734375 C52.03222656 5.65757813 53.22460938 6.04171875 54.453125 6.4375 C67.75792949 11.12206589 79.28968547 17.95004181 89.83984375 27.2734375 C90.47148438 27.77359375 91.103125 28.27375 91.75390625 28.7890625 C97.25385298 33.15888319 101.74313367 38.58820718 105.83984375 44.2734375 C105.83984375 44.9334375 105.83984375 45.5934375 105.83984375 46.2734375 C103.42384911 48.55910706 100.68960026 50.47168479 98.02734375 52.4609375 C97.28935547 53.03263672 96.55136719 53.60433594 95.79101562 54.19335938 C95.07880859 54.72896484 94.36660156 55.26457031 93.6328125 55.81640625 C92.97821045 56.31164795 92.3236084 56.80688965 91.64916992 57.31713867 C91.05209229 57.63271729 90.45501465 57.9482959 89.83984375 58.2734375 C86.4966242 57.15903098 85.77964756 56.29871407 83.58984375 53.6484375 C82.96722656 52.92269531 82.34460937 52.19695312 81.703125 51.44921875 C81.08824219 50.73121094 80.47335937 50.01320313 79.83984375 49.2734375 C66.31733365 33.52614425 44.11395599 24.47714535 23.83984375 22.2734375 C-4.84738734 20.87986997 -31.58304926 26.88323867 -53.29296875 46.55859375 C-70.62608298 62.97073869 -80.28892361 84.1979021 -81.4765625 108.03515625 C-82.13278523 134.62631949 -74.38608337 158.18485648 -56.1027832 177.71411133 C-38.92452797 195.51095093 -15.65785604 204.09561291 8.83984375 205.2734375 C14.86717797 205.31393187 20.84601209 204.87179156 26.83984375 204.2734375 C27.90847656 204.17160156 28.97710938 204.06976562 30.078125 203.96484375 C52.52961677 201.01789557 73.8521739 187.82965627 87.83984375 170.2734375 C91.96749291 172.08710153 95.4604358 174.76490368 99.08984375 177.3984375 C100.064375 178.10033203 100.064375 178.10033203 101.05859375 178.81640625 C102.65419858 179.96618032 104.247274 181.11946316 105.83984375 182.2734375 C97.81466446 200.24820133 74.79539485 212.09062198 57.62646484 219.18847656 C53.11013693 220.9023431 48.54108109 222.17906264 43.83984375 223.2734375 C42.86724609 223.51247803 42.86724609 223.51247803 41.875 223.75634766 C21.94542352 228.47165437 -0.30516704 228.11662917 -20.16015625 223.2734375 C-21.41183594 223.00660156 -22.66351562 222.73976563 -23.953125 222.46484375 C-50.82275456 216.19990422 -73.86087479 197.93629717 -88.3828125 174.79296875 C-92.90772138 167.3096655 -96.34201096 159.55511351 -99.16015625 151.2734375 C-99.44503906 150.48066406 -99.72992187 149.68789062 -100.0234375 148.87109375 C-109.3475688 120.89869985 -107.35291182 88.8268318 -94.53515625 62.3984375 C-81.02639677 35.76895623 -58.0051065 15.10308276 -29.65185547 5.41650391 C-19.86302582 2.35785375 -10.29592902 0.15087448 0 0 Z " fill="#29B6E6" transform="translate(1884.16015625,1859.7265625)"/>
<path d="M0 0 C11.22234804 7.45134902 16.46962042 20.19493139 19.08984375 32.99609375 C20.22771249 39.54186819 20.34383925 45.99379715 20.3125 52.625 C20.30512817 54.47061523 20.30512817 54.47061523 20.29760742 56.35351562 C20.08415804 73.0178922 18.16888178 91.32895122 6.1015625 103.9921875 C-4.3646382 114.01770606 -15.42389747 115.39825446 -29.27734375 115.21484375 C-38.16990298 114.93340046 -44.81983449 112.11485948 -52 107 C-52.86625 106.4225 -53.7325 105.845 -54.625 105.25 C-66.68194372 93.82763226 -69.6630521 76.53801415 -70.21875 60.63671875 C-70.63973469 41.66051483 -69.7796091 21.26732059 -57.0078125 6.03515625 C-42.20338015 -8.97089288 -17.78554193 -10.85423466 0 0 Z " fill="#FDFEFE" transform="translate(1681,1919)"/>
<path d="M0 0 C4.01928423 -0.29206649 8.03583834 -0.46849455 12.0625 -0.625 C13.19623047 -0.70878906 14.32996094 -0.79257813 15.49804688 -0.87890625 C23.73119953 -1.11893986 23.73119953 -1.11893986 27.13110352 1.87939453 C28.99220502 4.49764659 30.50169499 7.1594684 32 10 C33.12288087 11.8204553 34.2544765 13.63556276 35.39453125 15.4453125 C36.5369432 17.33667929 37.67618482 19.22996406 38.8125 21.125 C40.04486777 23.16448876 41.27794337 25.20354996 42.51171875 27.2421875 C43.10774902 28.22799805 43.7037793 29.21380859 44.31787109 30.22949219 C46.55898989 33.92067014 48.8321161 37.59080213 51.125 41.25 C51.7135376 42.18924316 51.7135376 42.18924316 52.31396484 43.14746094 C54.49916167 46.62702832 56.69540591 50.09953478 58.89453125 53.5703125 C64.0517927 61.71033706 69.19025653 69.86139922 74.25 78.0625 C74.72816162 78.83062012 75.20632324 79.59874023 75.69897461 80.39013672 C79 85.76799859 79 85.76799859 79 88 C79.66 88 80.32 88 81 88 C81.40617554 86.91368286 81.40617554 86.91368286 81.82055664 85.80541992 C82.97708536 83.05450469 84.30923089 80.65289364 85.87109375 78.11328125 C86.72356689 76.7204895 86.72356689 76.7204895 87.59326172 75.29956055 C88.50615967 73.82096558 88.50615967 73.82096558 89.4375 72.3125 C90.06930176 71.28229736 90.70110352 70.25209473 91.35205078 69.19067383 C92.63571065 67.097877 93.92085568 65.00599037 95.20751953 62.91503906 C97.18033745 59.70672444 99.14230432 56.49194195 101.10205078 53.27563477 C104.68459689 47.39885745 108.28531934 41.53320452 111.88671875 35.66796875 C112.56935791 34.55381592 113.25199707 33.43966309 113.95532227 32.29174805 C115.35052609 30.02087734 116.76381293 27.7646483 118.18725586 25.51098633 C121.21514546 20.69656689 124.10753415 16.00810426 126.3671875 10.78125 C130.23179303 2.27423395 130.23179303 2.27423395 134 0 C142.19896911 -1.84690502 150.72804823 -0.98318055 159 0 C157.5889953 3.82366195 155.81151387 7.15612443 153.68359375 10.62890625 C153.01070312 11.73169922 152.3378125 12.83449219 151.64453125 13.97070312 C150.90888442 15.16798734 150.17320647 16.36525243 149.4375 17.5625 C148.67147143 18.81550857 147.90585357 20.06876832 147.140625 21.32226562 C145.55090594 23.92561801 143.95942677 26.52788174 142.36669922 29.12939453 C139.07899064 34.50240851 135.81282676 39.88846566 132.54656982 45.27453613 C130.78600512 48.17715257 129.0237583 51.07874748 127.26171875 53.98046875 C124.75322598 58.11195533 122.24505886 62.24363942 119.73721313 66.3755188 C118.27833219 68.77911734 116.81934475 71.18265123 115.36035156 73.58618164 C114.3768518 75.20648147 113.39349888 76.82687043 112.41015625 78.44726562 C111.45882812 80.01444336 111.45882812 80.01444336 110.48828125 81.61328125 C110.16651917 82.18031265 109.84475708 82.74734406 109.51324463 83.33155823 C107.4323196 86.93179464 105.17885751 89.98493148 102.41308594 93.09545898 C86.52797034 112.47278708 90.19349592 138.18028782 90.57513428 161.78973389 C90.65881441 167.91108431 90.66163266 174.03246112 90.671875 180.15429688 C90.70347634 192.10455236 90.83033806 204.05090672 91 216 C84.07 216 77.14 216 70 216 C70.04825928 212.97521484 70.09651855 209.95042969 70.14624023 206.83398438 C70.29596981 196.74402777 70.3608603 186.65473915 70.38603115 176.56374359 C70.4037908 170.45594459 70.44848992 164.3510242 70.55883789 158.24414062 C72.254284 121.49102748 72.254284 121.49102748 55.79922485 90.06170654 C53.25288193 87.14388788 51.43449882 84.05561323 49.4921875 80.70703125 C48.88544189 79.71920654 48.27869629 78.73138184 47.65356445 77.71362305 C47.06663818 76.75625244 46.47971191 75.79888184 45.875 74.8125 C44.53277326 72.62746829 43.19032226 70.44257432 41.84765625 68.2578125 C40.87723389 66.6785498 40.87723389 66.6785498 39.88720703 65.06738281 C35.46862174 57.88560978 31.02332301 50.720359 26.58105469 43.55322266 C24.96071528 40.93655966 23.34328523 38.31811768 21.7265625 35.69921875 C20.63034348 33.92439569 19.53399007 32.14965562 18.4375 30.375 C17.90785645 29.51769287 17.37821289 28.66038574 16.83251953 27.77709961 C12.47767239 20.74188596 8.06177775 13.74613144 3.60522461 6.77490234 C2.89378296 5.65656006 2.89378296 5.65656006 2.16796875 4.515625 C1.74797607 3.85852539 1.3279834 3.20142578 0.89526367 2.52441406 C0 1 0 1 0 0 Z " fill="#29B6E6" transform="translate(2898,1865)"/>
<path d="M0 0 C40.6875 0 40.6875 0 52.67578125 11.625 C63.92357883 23.68219245 64.52570089 41.62471332 64.39111328 57.28173828 C64.37500255 59.49964834 64.39109158 61.71573742 64.41015625 63.93359375 C64.43473384 79.83342673 62.84570529 95.66606309 51.6875 107.9375 C37.95915821 120.6308892 16.63194122 116 0 116 C0 77.72 0 39.44 0 0 Z " fill="#FEFEFE" transform="translate(1008,1915)"/>
<path d="M0 0 C8.12625 -0.04125 16.2525 -0.0825 24.625 -0.125 C27.16010254 -0.14320801 29.69520508 -0.16141602 32.30712891 -0.18017578 C63.18147414 -0.31080675 63.18147414 -0.31080675 74 6 C74.68578125 6.39832031 75.3715625 6.79664063 76.078125 7.20703125 C82.98698722 11.78217474 88.09389908 19.03503464 90.4375 27 C92.38938131 37.62690937 90.99840133 47.55870589 85.25 56.75 C78.88650974 65.56576212 70.45568315 70.78141138 59.60327148 72.55517578 C53.81188118 73.23127056 48.01000748 73.12363498 42.1875 73.09765625 C41.11435547 73.09664917 40.04121094 73.09564209 38.93554688 73.09460449 C34.95702026 73.08940362 30.97850897 73.07544252 27 73.0625 C18.09 73.041875 9.18 73.02125 0 73 C0 48.91 0 24.82 0 0 Z " fill="#FDFEFE" transform="translate(2759,1886)"/>
<path d="M0 0 C2.71986586 2.39365989 4.01664718 4.79606493 5.50390625 8.08203125 C5.98875488 9.14147949 6.47360352 10.20092773 6.97314453 11.29248047 C7.49763184 12.45408691 8.02211914 13.61569336 8.5625 14.8125 C9.71392749 17.33364839 10.87072383 19.85232404 12.02734375 22.37109375 C12.33607422 23.04493103 12.64480469 23.71876831 12.96289062 24.4130249 C17.10489866 33.43731808 21.36957065 42.40380731 25.625 51.375 C26.41483623 53.04270505 27.204632 54.71042926 27.99438477 56.37817383 C28.73832788 57.94748344 29.482382 59.51674044 30.2265625 61.0859375 C30.56357681 61.79738419 30.90059113 62.50883087 31.24781799 63.24183655 C32.70451896 66.30903704 34.18044861 69.35028857 35.73583984 72.36962891 C37 75 37 75 37 77 C12.91 77 -11.18 77 -36 77 C-34.45602162 72.36806487 -32.74493885 68.11009718 -30.6484375 63.734375 C-30.31695709 63.03518448 -29.98547668 62.33599396 -29.64395142 61.61561584 C-28.5574678 59.32555775 -27.46627262 57.03777935 -26.375 54.75 C-25.23145231 52.34364062 -24.08900959 49.93675858 -22.94659424 47.52986145 C-22.15985728 45.8725913 -21.37270233 44.21551952 -20.58514404 42.55863953 C-17.82352739 36.74626621 -15.08164743 30.92490066 -12.3515625 25.09765625 C-11.98251801 24.31049225 -11.61347351 23.52332825 -11.23324585 22.71231079 C-9.8022421 19.65974938 -8.37134988 16.60714282 -6.94403076 13.55285645 C-5.96459621 11.45751399 -4.98256785 9.36340579 -4 7.26953125 C-3.443125 6.07948486 -2.88625 4.88943848 -2.3125 3.66333008 C-1 1 -1 1 0 0 Z " fill="#FBFDFE" transform="translate(2118,1912)"/>
<path d="M0 0 C4.74375 -0.061875 9.4875 -0.12375 14.375 -0.1875 C16.58775635 -0.22846802 16.58775635 -0.22846802 18.84521484 -0.27026367 C27.58658148 -0.32515544 36.25374565 -0.18531932 43.4375 5.375 C48.56952108 10.63219233 50.54993063 16.02438721 51.375 23.3125 C50.70185315 29.93177737 48.71421985 35.88628068 43.6875 40.4375 C34.14232966 47.64217015 23.9533191 47.14266208 12.5625 47.0625 C6.3440625 47.0315625 6.3440625 47.0315625 0 47 C0 31.49 0 15.98 0 0 Z " fill="#FDFEFE" transform="translate(1421,1910)"/>
<path d="M0 0 C4.53648124 2.02521484 7.0805898 4.72075496 9.30859375 9.07421875 C10.94353163 13.62802879 10.48346721 17.63017624 8.875 22.1875 C6.28535548 26.07196678 3.22685959 28.88657021 -1 31 C-6.55651064 31.81591885 -10.8454446 31.63718243 -15.5 28.3125 C-19.31398518 25.28788471 -20.6380755 22.14272118 -21.44140625 17.38671875 C-21.68952383 11.85609784 -21.32762629 8.6472611 -17.625 4.375 C-12.34628885 -0.94715733 -7.27610239 -0.6666586 0 0 Z " fill="#15AEDC" transform="translate(2065,2112)"/>
<path d="M0 0 C10 0 10 0 13.625 1.5 C16.18827127 4.19818028 16.34930184 4.57397448 16.375 8.0625 C16.25125 9.361875 16.1275 10.66125 16 12 C16 12.99 16 13.98 16 15 C16.495 15.433125 16.99 15.86625 17.5 16.3125 C19 18 19 18 19.4375 20.875 C18.90378013 24.68728477 17.65360557 26.26834721 15 29 C10.51793698 31.24103151 5.01109879 30 0 30 C0 20.1 0 10.2 0 0 Z " fill="#13ADDB" transform="translate(1305,2112)"/>
<path d="M0 0 C1.65 0 3.3 0 5 0 C7.09765625 2.16015625 7.09765625 2.16015625 9.0625 5.0625 C9.71347656 6.00222656 10.36445312 6.94195313 11.03515625 7.91015625 C13.13166874 11.2070576 15.06156776 14.60774359 17 18 C17.33 12.06 17.66 6.12 18 0 C19.98 0 21.96 0 24 0 C24 9.9 24 19.8 24 30 C22.02 30 20.04 30 18 30 C15.76953125 27.76953125 15.76953125 27.76953125 13.8125 24.8125 C12.83216797 23.36810547 12.83216797 23.36810547 11.83203125 21.89453125 C10.18198396 19.2875269 8.58737806 16.6456301 7 14 C6.67 19.28 6.34 24.56 6 30 C4.02 30 2.04 30 0 30 C0 20.1 0 10.2 0 0 Z " fill="#17AFDC" transform="translate(1946,2112)"/>
<path d="M0 0 C1.98 0 3.96 0 6 0 C8.79763934 6.04290098 11.31066213 12.18069857 13.75 18.375 C14.06783447 19.17212402 14.38566895 19.96924805 14.71313477 20.79052734 C15.00889404 21.5480127 15.30465332 22.30549805 15.609375 23.0859375 C15.87717773 23.7670459 16.14498047 24.4481543 16.42089844 25.14990234 C17 27 17 27 17 30 C15.02 30 13.04 30 11 30 C10.34 28.35 9.68 26.7 9 25 C5.04 24.67 1.08 24.34 -3 24 C-3.66 25.98 -4.32 27.96 -5 30 C-6.98 30 -8.96 30 -11 30 C-9.0173911 22.93487572 -6.592956 16.16273165 -3.8125 9.375 C-3.44447266 8.46621094 -3.07644531 7.55742187 -2.69726562 6.62109375 C-1.80216521 4.41240441 -0.9030465 2.20544952 0 0 Z " fill="#14ADDC" transform="translate(1855,2112)"/>
<path d="M0 0 C12.53846154 0 12.53846154 0 16 3 C17.57422753 6.14845506 17.66928343 9.59218072 17 13 C15.68 14.65 14.36 16.3 13 18 C14.98 21.96 16.96 25.92 19 30 C16.69 30 14.38 30 12 30 C10.35 27.03 8.7 24.06 7 21 C6.67 23.97 6.34 26.94 6 30 C4.02 30 2.04 30 0 30 C0 20.1 0 10.2 0 0 Z " fill="#15AEDC" transform="translate(2597,2112)"/>
<path d="M0 0 C1.98 0 3.96 0 6 0 C6 3.96 6 7.92 6 12 C9.3 12 12.6 12 16 12 C16 8.04 16 4.08 16 0 C17.98 0 19.96 0 22 0 C22 9.9 22 19.8 22 30 C20.02 30 18.04 30 16 30 C16 25.71 16 21.42 16 17 C12.7 17 9.4 17 6 17 C6 21.29 6 25.58 6 30 C4.02 30 2.04 30 0 30 C0 20.1 0 10.2 0 0 Z " fill="#12ADDB" transform="translate(1037,2112)"/>
<path d="M0 0 C4.1610986 1.53303633 5.53935571 2.30903357 8 6 C7.01 6.99 6.02 7.98 5 9 C0.25 7.125 0.25 7.125 -2 6 C-6.6478538 5.58685744 -9.24440152 6.21012684 -13 9 C-14.61588379 12.23176757 -14.57451407 15.50615283 -14 19 C-12.16666667 22.16666667 -12.16666667 22.16666667 -9 24 C-4.7149344 24.79198683 -1.69329658 24.46219772 2 22 C4.1875 22.375 4.1875 22.375 6 23 C6.33 24.32 6.66 25.64 7 27 C1.43073391 30.31786065 -2.49759217 31.72248976 -9 31 C-14.07499409 29.53771357 -17.29058795 27.5685284 -20.1171875 23.16015625 C-21.88231475 18.84106169 -21.73516746 14.54841926 -21 10 C-16.61690547 0.72806927 -9.56788512 -1.19420854 0 0 Z " fill="#14ADDC" transform="translate(2887,2112)"/>
<path d="M0 0 C1.91015625 1.10546875 1.91015625 1.10546875 4.72265625 3.10546875 C4.39265625 4.42546875 4.06265625 5.74546875 3.72265625 7.10546875 C1.97265625 7.79296875 1.97265625 7.79296875 -0.27734375 8.10546875 C-1.17453125 7.39390625 -1.17453125 7.39390625 -2.08984375 6.66796875 C-5.30316804 4.37273711 -7.42167903 4.56432282 -11.27734375 5.10546875 C-14.40093205 6.89533828 -14.40093205 6.89533828 -16.27734375 10.10546875 C-17.1494415 14.40475767 -16.99723017 17.82219296 -14.83984375 21.66796875 C-11.02031643 23.81063041 -7.5581437 23.76815486 -3.27734375 23.10546875 C-0.29750208 21.77376566 -0.29750208 21.77376566 1.72265625 20.10546875 C2.71265625 21.09546875 3.70265625 22.08546875 4.72265625 23.10546875 C3.70750891 26.37649905 2.69013889 27.1240501 -0.33984375 28.85546875 C-4.62996875 30.47320338 -8.75170169 30.84047266 -13.27734375 30.10546875 C-18.10361069 27.7378661 -21.01165206 24.98542007 -23.27734375 20.10546875 C-24.18881687 14.92830142 -24.51906591 10.23555065 -21.80859375 5.5859375 C-16.17990835 -1.03253792 -8.41180491 -3.30412234 0 0 Z " fill="#15AEDC" transform="translate(1767.27734375,2112.89453125)"/>
<path d="M0 0 C5.61 0 11.22 0 17 0 C17 1.98 17 3.96 17 6 C13.37 6 9.74 6 6 6 C6 7.65 6 9.3 6 11 C9.63 11 13.26 11 17 11 C17 12.98 17 14.96 17 17 C13.37 17 9.74 17 6 17 C6 19.64 6 22.28 6 25 C9.3 25 12.6 25 16 25 C16 26.65 16 28.3 16 30 C10.72 30 5.44 30 0 30 C0 20.1 0 10.2 0 0 Z " fill="#16AEDC" transform="translate(2506,2112)"/>
<path d="M0 0 C5.61 0 11.22 0 17 0 C17 1.98 17 3.96 17 6 C13.37 6 9.74 6 6 6 C6 7.65 6 9.3 6 11 C9.63 11 13.26 11 17 11 C17 12.98 17 14.96 17 17 C13.37 17 9.74 17 6 17 C6 19.64 6 22.28 6 25 C9.3 25 12.6 25 16 25 C16 26.65 16 28.3 16 30 C10.72 30 5.44 30 0 30 C0 20.1 0 10.2 0 0 Z " fill="#14ADDC" transform="translate(1134,2112)"/>
<path d="M0 0 C5.28 0 10.56 0 16 0 C16 1.98 16 3.96 16 6 C12.37 6 8.74 6 5 6 C5 7.65 5 9.3 5 11 C8.63 11 12.26 11 16 11 C16 12.98 16 14.96 16 17 C12.37 17 8.74 17 5 17 C5 19.31 5 21.62 5 24 C8.63 24 12.26 24 16 24 C16 25.98 16 27.96 16 30 C10.72 30 5.44 30 0 30 C0 20.1 0 10.2 0 0 Z " fill="#14ADDB" transform="translate(2969,2112)"/>
<path d="M0 0 C1.98 0 3.96 0 6 0 C8.57616518 6.2638737 10.94235079 12.54646385 13 19 C13.36351563 18.07380859 13.36351563 18.07380859 13.734375 17.12890625 C16.01987168 11.35363196 18.43194836 5.65517755 21 0 C22.98 0 24.96 0 27 0 C25.10229365 6.80941689 22.81009268 13.4302967 20.375 20.0625 C20.06167725 20.92012939 19.74835449 21.77775879 19.42553711 22.66137695 C19.12784424 23.46534912 18.83015137 24.26932129 18.5234375 25.09765625 C18.25450684 25.82476807 17.98557617 26.55187988 17.70849609 27.30102539 C17 29 17 29 16 30 C14.00041636 30.04080783 11.99954746 30.04254356 10 30 C9.76812988 29.32420898 9.53625977 28.64841797 9.29736328 27.95214844 C8.24277368 24.88377231 7.18393441 21.81687925 6.125 18.75 C5.76019531 17.68652344 5.39539062 16.62304688 5.01953125 15.52734375 C4.66503906 14.50253906 4.31054688 13.47773438 3.9453125 12.421875 C3.45828857 11.00793457 3.45828857 11.00793457 2.96142578 9.56542969 C2.06918175 7.02624546 2.06918175 7.02624546 0.87841797 4.84863281 C0 3 0 3 0 0 Z " fill="#18AFDC" transform="translate(2687,2112)"/>
<path d="M0 0 C5.28 0 10.56 0 16 0 C16 1.98 16 3.96 16 6 C12.37 6 8.74 6 5 6 C5 7.65 5 9.3 5 11 C8.63 11 12.26 11 16 11 C16 12.98 16 14.96 16 17 C12.37 17 8.74 17 5 17 C5.33 19.31 5.66 21.62 6 24 C9.3 24.33 12.6 24.66 16 25 C16 26.65 16 28.3 16 30 C10.72 30 5.44 30 0 30 C0 20.1 0 10.2 0 0 Z " fill="#11ACDB" transform="translate(1398,2112)"/>
<path d="M0 0 C11 0 11 0 14.6875 1.4375 C17.19269028 4.21352166 17.43059301 4.92408963 17.625 8.5 C17.39856185 11.49292167 17.06854535 12.88575776 15.5 15.5 C11.9787637 17.61274178 9.08577216 17.72761519 5 18 C5 21.96 5 25.92 5 30 C3.35 30 1.7 30 0 30 C0 20.1 0 10.2 0 0 Z " fill="#11ACDB" transform="translate(2149,2112)"/>
<path d="M0 0 C2.5625 1.5 2.5625 1.5 4 3 C3.34 4.32 2.68 5.64 2 7 C-1.11257569 7 -3.10765685 6.82638376 -6 6 C-4.63696103 9.15543521 -3.1817387 10.93188133 -0.5 13.0625 C1.93664912 15.00872186 3.22262121 16.33393182 5 19 C5.32997475 22.87720334 5.30077936 25.7789089 3 29 C-0.44576667 31.55241975 -3.84183583 31.5018474 -8 31 C-10.32751591 29.53829964 -12.01351461 27.93803453 -14 26 C-13.505 24.515 -13.505 24.515 -13 23 C-11.35 22.67 -9.7 22.34 -8 22 C-7.67 22.66 -7.34 23.32 -7 24 C-5.35 24 -3.7 24 -2 24 C-2.55756186 20.46368301 -3.64153476 19.11730658 -6.4375 16.9375 C-11.72420225 12.77656733 -11.72420225 12.77656733 -12.30078125 9.0625 C-12.30464844 8.381875 -12.30851562 7.70125 -12.3125 7 C-12.32925781 6.319375 -12.34601562 5.63875 -12.36328125 4.9375 C-11.17776701 -1.38524259 -5.11828662 -0.72062519 0 0 Z " fill="#15AEDC" transform="translate(2427,2112)"/>
<path d="M0 0 C3.28151257 0.78626341 4.93049074 2.91994937 6.97265625 5.47265625 C5.98265625 6.46265625 4.99265625 7.45265625 3.97265625 8.47265625 C3.37453125 8.14265625 2.77640625 7.81265625 2.16015625 7.47265625 C-0.08120846 6.26477637 -0.08120846 6.26477637 -3.02734375 6.47265625 C-2.48726206 10.29542193 -0.95870001 11.7470219 1.97265625 14.16015625 C3.05546875 15.06314453 3.05546875 15.06314453 4.16015625 15.984375 C4.75828125 16.47550781 5.35640625 16.96664062 5.97265625 17.47265625 C6.97265625 18.47265625 6.97265625 18.47265625 7.34765625 22.22265625 C7.28629759 25.6341976 6.97053698 26.47583516 4.97265625 29.47265625 C1.63920631 31.69495621 -0.16566043 32.20343371 -4.08984375 31.98046875 C-7.32932983 31.1314099 -8.99699486 29.01059236 -11.02734375 26.47265625 C-10.53234375 24.98765625 -10.53234375 24.98765625 -10.02734375 23.47265625 C-8.08984375 22.66015625 -8.08984375 22.66015625 -6.02734375 22.47265625 C-5.36734375 23.13265625 -4.70734375 23.79265625 -4.02734375 24.47265625 C-1.45673064 25.12033418 -1.45673064 25.12033418 0.97265625 25.47265625 C-0.1314051 19.81434184 -2.94542865 17.44439279 -7.25 13.98828125 C-9.70738766 11.89275067 -9.98860486 10.82905401 -10.33984375 7.59765625 C-10.02734375 4.47265625 -10.02734375 4.47265625 -8.52734375 2.09765625 C-5.65571987 0.23110073 -3.41862383 -0.14696887 0 0 Z " fill="#14ADDC" transform="translate(1497.02734375,2111.52734375)"/>
<path d="M0 0 C2.92937654 1.81310142 5.43647949 3.87295899 7 7 C7.59873168 12.26883876 6.25400021 14.8846468 3 19 C-0.23415916 20.61707958 -3.50375265 20.56822376 -7 20 C-10 18.0625 -10 18.0625 -12 15 C-12.95482759 10.32725969 -12.66302995 7.06084792 -10.125 3 C-6.75796187 -0.16897706 -4.59370053 -0.53004237 0 0 Z " fill="#F6FCFD" transform="translate(2062,2117)"/>
<path d="M0 0 C1.98 0 3.96 0 6 0 C7.65 2.97 9.3 5.94 11 9 C13.04697523 6.02249448 13.04697523 6.02249448 14.75 2.8125 C17 0 17 0 20.25 -0.375 C21.1575 -0.25125 22.065 -0.1275 23 0 C21.6075493 3.71320186 19.87035928 7.04269889 17.9375 10.5 C14.63814793 16.95420696 14.02314734 22.82432558 14 30 C12.02 30 10.04 30 8 30 C8.00902344 29.15179687 8.01804687 28.30359375 8.02734375 27.4296875 C7.79803899 18.35719486 5.86286583 12.60297046 1.49609375 4.765625 C0 2 0 2 0 0 Z " fill="#17AEDC" transform="translate(2239,2112)"/>
<path d="M0 0 C5.61 0 11.22 0 17 0 C17 1.98 17 3.96 17 6 C15.35 6 13.7 6 12 6 C12 13.92 12 21.84 12 30 C10.02 30 8.04 30 6 30 C6 22.08 6 14.16 6 6 C4.02 6 2.04 6 0 6 C0 4.02 0 2.04 0 0 Z " fill="#18AFDC" transform="translate(1575,2112)"/>
<path d="M0 0 C5.61 0 11.22 0 17 0 C17 1.98 17 3.96 17 6 C15.02 6 13.04 6 11 6 C11 13.92 11 21.84 11 30 C9.02 30 7.04 30 5 30 C5 22.08 5 14.16 5 6 C3.35 6 1.7 6 0 6 C0 4.02 0 2.04 0 0 Z " fill="#17AFDC" transform="translate(948,2112)"/>
<path d="M0 0 C1.65 0 3.3 0 5 0 C5 9.57 5 19.14 5 29 C3.35 29 1.7 29 0 29 C0 19.43 0 9.86 0 0 Z " fill="#0CAADA" transform="translate(2787,2113)"/>
<path d="M0 0 C2.97 0.495 2.97 0.495 6 1 C6.33 2.65 6.66 4.3 7 6 C4 8 4 8 0 8 C0 5.36 0 2.72 0 0 Z " fill="#E5F6FB" transform="translate(1311,2129)"/>
<path d="M0 0 C4.14032846 1.54385129 7.93553053 3.51028938 11.8125 5.625 C12.40998047 5.94984375 13.00746094 6.2746875 13.62304688 6.609375 C15.08337135 7.40379151 16.54187491 8.20155376 18 9 C14.59003489 10.13665504 14.13694152 9.91583208 10.98828125 8.56640625 C10.23095703 8.24736328 9.47363281 7.92832031 8.69335938 7.59960938 C7.90767578 7.25736328 7.12199219 6.91511719 6.3125 6.5625 C5.51521484 6.22412109 4.71792969 5.88574219 3.89648438 5.53710938 C1.92734393 4.6999299 -0.03682084 3.8510647 -2 3 C-1.34 2.01 -0.68 1.02 0 0 Z " fill="#117EA7" transform="translate(1289,1689)"/>
<path d="M0 0 C2.18975773 3.28463659 2.99806563 6.20696275 4 10 C1.69 10 -0.62 10 -3 10 C-2.69201674 8.51988629 -2.378482 7.04092675 -2.0625 5.5625 C-1.88847656 4.73878906 -1.71445313 3.91507813 -1.53515625 3.06640625 C-1 1 -1 1 0 0 Z " fill="#DAF2F9" transform="translate(1858,2121)"/>
<path d="M0 0 C2.375 -0.125 2.375 -0.125 5 0 C7 2 7 2 7 5 C4.69 5.33 2.38 5.66 0 6 C0 4.02 0 2.04 0 0 Z " fill="#DEF3F9" transform="translate(2602,2118)"/>
<path d="M0 0 C1.65 0 3.3 0 5 0 C5.66 1.32 6.32 2.64 7 4 C5 6 5 6 2.375 6.125 C1.59125 6.08375 0.8075 6.0425 0 6 C0 4.02 0 2.04 0 0 Z " fill="#E1F4FA" transform="translate(2154,2118)"/>
<path d="M0 0 C1.32 0.33 2.64 0.66 4 1 C4 2.32 4 3.64 4 5 C2.68 5.33 1.36 5.66 0 6 C0 4.02 0 2.04 0 0 Z " fill="#F1FAFC" transform="translate(1311,2118)"/>
<path d="M0 0 C4.50802601 1.25805377 7.4912812 2.90407165 11 6 C6.61110675 5.33501617 3.0188515 3.81242323 -1 2 C-0.67 1.34 -0.34 0.68 0 0 Z " fill="#1A8CB3" transform="translate(1296,1693)"/>
<path d="M0 0 C2.66666667 2.66666667 5.33333333 5.33333333 8 8 C7.67 8.66 7.34 9.32 7 10 C4.36 7.36 1.72 4.72 -1 2 C-0.67 1.34 -0.34 0.68 0 0 Z " fill="#52C5ED" transform="translate(1738,1611)"/>
</svg>
